<svg viewBox="0 0 300 100" version="1.1" xmlns="http://www.w3.org/2000/svg" id="Layer_1">
  
  <path d="M37.8,62.6c-.9,3.2-2.9,7-7.5,7H12.3l26.2-41.4v-2.8s-1.8.8-1.8.8c-.5.2-3.5.7-6.2.7H12.9c-2.7,0-6.3-.6-7.3-1l-1.7-.7v11h3v-2.4c0-1.4,1.1-2.5,2.5-2.6h19.3L3,71.8v2.2s35.5,0,35.5,0l2.6-12.2h-3l-.2.9h0Z"></path>
  <path d="M177.5,30.1h2v-3c0,0-16.3,0-16.3,0v3h2c1.6,0,2.8,1.2,2.9,2.7v15.8h-23.6v-15.7c0-1.6,1.3-2.8,2.9-2.8h2v-3c0,0-16.3,0-16.3,0v3h2c1.6,0,2.8,1.2,2.9,2.8v35.2c0,1.6-1.3,2.8-2.9,2.8h-2v3s16.3,0,16.3,0v-3.1h-2c-1.6,0-2.8-1.3-2.9-2.8v-15.2h23.6v15.2c0,1.6-1.3,2.8-2.9,2.8h-2v3s16.3,0,16.3,0v-3.1h-2c-1.6,0-2.8-1.3-2.9-2.8v-35.2c0-1.5,1.3-2.8,2.9-2.8"></path>
  <path d="M214.7,31.4h.3c1.6,0,4.1,0,6.4,0,4.1.2,6.6,3.4,6.8,8.5,0,1.2-.1,2.7-.4,3.4-1.6,4.9-5.5,5.7-8.8,5.8-1.9,0-3.3,0-3.3,0h-.9v-17.8h0ZM236.6,66.4c-2.4-2.6-7.8-10.3-7.9-10.4-.6-.8-1.5-2-2.6-3,5.1-1.5,9-6.8,9-12.9s-5.2-13.1-13.6-13.1h-18.4v3h2c1.6,0,2.8,1.3,2.9,2.8v35.2c0,1.6-1.3,2.8-2.9,2.8h-2v3s16.3,0,16.3,0v-3.1h-2c-1.6,0-2.8-1.3-2.9-2.8v-15.9h.9c1.7,0,3.3,1.8,4.9,3.8.2.2,1.6,2.3,3.1,4.4,2.9,4.1,4.9,7,5.3,7.5,2.3,2.8,5.8,6,12,6h4.7v-3h-1.2c-3.2,0-5.2-1.6-7.8-4.4"></path>
  <path d="M293.9,61.2l-.3.8c-2,4.8-4.2,7.6-10.2,7.6h-7.9v-16.6h9.6c1,0,1.9.9,1.9,1.9v2.1h3s0-12.5,0-12.5h-3v2.2c0,1-.9,1.9-1.9,1.9h-9.5v-17.2h11.7c1.4,0,2.4,1.2,2.4,2.6v2.3h3s0-11,0-11l-1.7.7c-1,.4-4.4,1-7.1,1.1h-19.8v3h2c1.5,0,2.7,1.1,2.9,2.5v35.5c0,1.6-1.3,2.8-2.9,2.8h-2v3s28.4,0,28.4,0l4.6-12.7h-3.2Z"></path>
  <path d="M70.9,30.2h0v13.1l6.5-10.7v-2.5c0-1.1.9-1.9,2.2-1.9h2.2v-3h-15.3v3h2.2c1.2,0,2.1.8,2.2,2"></path>
  <path d="M105.6,30.4h-5.2v26.6c0,8.1-5.1,13.4-13,13.4s-12.3-5.6-12.3-14.2v-7.1l-6.4,10.2c1,9.5,8.3,15.5,18.7,15.5s18.4-7.2,18.4-17.8l-.2-26.6h0Z"></path>
</svg>